<svg width="382" height="742" viewBox="0 0 382 742" fill="none" xmlns="http://www.w3.org/2000/svg">
<path d="M116.4 484.7C106.2 492.3 95.6999 500.3 89.5999 511.4C81.1999 526.6 93.6999 539.2 98.7999 552.7C101.8 560.8 103.4 566.5 101.7 575.2C100.3 582.5 90.9999 590.2 96.4999 598C104.3 608.8 118.3 602.5 125.8 617.6C132 630 129.6 644.5 137.5 656.3C145.7 668.5 159.7 678.1 164.9 692.3C170.3 707.2 158.3 729.1 174.9 739.5C183.7 745.1 196.1 740.4 202.5 732C215.8 714.5 215.6 681.9 218.9 661.1C220.4 651.4 227.2 638.7 236.1 642.7C241.7 645.2 249.3 685.6 261 664.7C263.3 660.6 263 655.6 262.6 650.9C262.1 644.3 259.9 636.9 260.9 630.3C264.6 606.3 270.3 593.4 262.9 568.1C262.1 565.4 261.5 561.9 263.7 560.2C264.9 559.3 266.4 559.1 267.9 559C277.2 558.4 287.9 559 292.9 549.3C298.3 538.8 285.7 530.8 282.1 522C282.8 523.8 307.7 530.9 311.7 533.1C304.1 514.9 285.7 500.8 267 495.4" fill="#F44E4E"/>
<path d="M128.8 571.9C131.5 580.5 135.5 588.3 141 594.6C145.3 599.5 150.6 603.8 153.4 609.8C155.8 615 156.2 620.9 158.4 626.2C167 646.6 183 624.8 188.6 614.7C195.6 602.2 202.5 598.6 215.6 598.7C217.1 598.7 218.7 598.7 219.7 597.5C220.7 596.4 220.7 594.8 220.5 593.4C219.3 585.4 210.7 574.2 219.2 567.4C222.5 564.7 226.9 563.9 230.9 562.5C251 555.4 250.5 518.5 249.8 500.7C249.5 494 246.9 487.7 243.3 482.1C223.2 451.3 171.4 451.2 147.1 477.3C127.2 498.6 119.2 540.7 128.8 571.9Z" fill="#D7384E"/>
<path d="M379.6 510.4C368.9 518.9 291 460.3 215.1 392.7L301.2 324.1C349.8 413.4 389.3 502.6 379.6 510.4Z" fill="#5A54FF"/>
<path d="M2.20005 510.4C12.9 518.9 90.8 460.3 166.7 392.7L80.6001 324.1C31.9001 413.4 -7.59995 502.6 2.20005 510.4Z" fill="#5A54FF"/>
<path d="M71.2 336.7C71.2 439.1 123.2 495.3 187.3 495.3C251.4 495.3 303.4 439.1 303.4 336.7C303.4 295.8 290 233.9 271.8 174.3H101.8C84.1 233.9 71.2 295.8 71.2 336.7Z" fill="#A7ADFF"/>
<path d="M187.3 0.199951C166.2 0.199951 128.5 84.6 101.8 174.2H271.8C244.6 84.7 206.6 0.199951 187.3 0.199951Z" fill="#5A54FF"/>
<path d="M278.3 483H96.4001C85.5001 483 76.6001 474.1 76.6001 463.2V453.5C76.6001 442.6 85.5001 433.7 96.4001 433.7H278.3C289.2 433.7 298.1 442.6 298.1 453.5V463.2C298.1 474.2 289.2 483 278.3 483Z" fill="#978CFF"/>
<path d="M267 496.5H107.7C104.7 496.5 102.3 494.1 102.3 491.1V488.5C102.3 485.5 104.7 483.1 107.7 483.1H267C270 483.1 272.4 485.5 272.4 488.5V491.1C272.4 494 269.9 496.5 267 496.5Z" fill="#5A54FF"/>
<path d="M187.3 243.6C153.6 243.6 126.3 270.9 126.3 304.6C126.3 306.5 126.4 308.3 126.6 310.1C162.4 295.6 197.9 280.5 232.7 264C221.6 251.5 205.4 243.6 187.3 243.6Z" fill="white"/>
<path d="M126.7 310.1C129.5 341.2 155.6 365.5 187.4 365.5C221.1 365.5 248.4 338.2 248.4 304.5C248.4 288.9 242.5 274.7 232.8 263.9C197.9 280.6 162.4 295.6 126.7 310.1Z" fill="#E3E5FC"/>
</svg>
