<svg width="100" height="102" viewBox="0 0 100 102" fill="none" xmlns="http://www.w3.org/2000/svg">
<path fill-rule="evenodd" clip-rule="evenodd" d="M6.4 93.6H3.9V98.3C3.9 99.6 4.7 99.5 6.3 99.5V101.4C3 101.8 1.7 100.9 1.7 98.3V93.6H0V91.5H1.8V88.8L3.9 88.2V91.5H6.3V93.6H6.4ZM15.7 91.5H17.8V101.4H15.7V100C15 101 13.8 101.7 12.2 101.7C9.5 101.7 7.3 99.4 7.3 96.5C7.3 93.6 9.5 91.3 12.2 91.3C13.7 91.3 14.9 91.9 15.7 93V91.5V91.5ZM12.6 99.6C14.4 99.6 15.7 98.3 15.7 96.4C15.7 94.5 14.4 93.2 12.6 93.2C10.8 93.2 9.5 94.5 9.5 96.4C9.5 98.3 10.8 99.6 12.6 99.6ZM21.4 90.1C20.7 90.1 20 89.5 20 88.7C20 88 20.6 87.3 21.4 87.3C22.2 87.3 22.8 87.9 22.8 88.7C22.8 89.4 22.1 90.1 21.4 90.1ZM20.3 101.4V91.5H22.4V101.4H20.3ZM24.9 101.4V87H27V101.4H24.9ZM40.9 91.5H43.1L40 101.4H37.9L35.8 94.8L33.7 101.4H31.6L28.5 91.5H30.7L32.6 98.3L34.7 91.5H36.7L38.8 98.3L40.9 91.5ZM45.8 90.1C45.1 90.1 44.4 89.5 44.4 88.7C44.4 88 45 87.3 45.8 87.3C46.5 87.3 47.2 87.9 47.2 88.7C47.1 89.4 46.5 90.1 45.8 90.1ZM44.7 101.4V91.5H46.8V101.4H44.7ZM54.5 91.3C56.7 91.3 58.3 92.8 58.3 95.4V101.5H56.2V95.7C56.2 94.2 55.3 93.4 54 93.4C52.6 93.4 51.5 94.2 51.5 96.2V101.5H49.4V91.6H51.5V92.9C52.1 91.8 53.2 91.3 54.5 91.3ZM68.4 87.6H70.5V101.4H68.4V100C67.7 101 66.5 101.7 64.9 101.7C62.2 101.7 60 99.4 60 96.5C60 93.6 62.2 91.3 64.9 91.3C66.4 91.3 67.6 91.9 68.4 93V87.6ZM65.3 99.6C67.1 99.6 68.4 98.3 68.4 96.4C68.4 94.5 67.1 93.2 65.3 93.2C63.5 93.2 62.2 94.5 62.2 96.4C62.2 98.3 63.5 99.6 65.3 99.6ZM77.7 101.7C74.7 101.7 72.5 99.4 72.5 96.5C72.5 93.6 74.7 91.3 77.7 91.3C79.6 91.3 81.3 92.3 82.1 93.8L80.3 94.9C79.9 94 78.9 93.4 77.7 93.4C76 93.4 74.6 94.7 74.6 96.5C74.6 98.3 75.9 99.6 77.7 99.6C78.9 99.6 79.9 99 80.3 98.1L82.1 99.1C81.3 100.6 79.6 101.7 77.7 101.7ZM85.6 94.3C85.6 96.1 90.9 95 90.9 98.7C90.9 100.7 89.2 101.7 87.1 101.7C85.1 101.7 83.7 100.8 83.1 99.4L84.9 98.3C85.2 99.2 86 99.7 87.1 99.7C88 99.7 88.8 99.4 88.8 98.6C88.8 96.8 83.5 97.8 83.5 94.3C83.5 92.4 85.1 91.3 87.1 91.3C88.7 91.3 90.1 92.1 90.7 93.4L88.9 94.4C88.5 93.6 87.9 93.3 87 93.3C86.3 93.2 85.6 93.5 85.6 94.3ZM94.7 94.3C94.7 96.1 100 95 100 98.7C100 100.7 98.3 101.7 96.2 101.7C94.2 101.7 92.8 100.8 92.2 99.4L94 98.3C94.3 99.2 95.1 99.7 96.2 99.7C97.1 99.7 97.9 99.4 97.9 98.6C97.9 96.8 92.6 97.8 92.6 94.3C92.6 92.4 94.2 91.3 96.2 91.3C97.8 91.3 99.2 92.1 99.8 93.4L98 94.4C97.6 93.6 97 93.3 96.1 93.3C95.4 93.2 94.7 93.5 94.7 94.3Z" fill="#161E2E"/>
<path fill-rule="evenodd" clip-rule="evenodd" d="M50 0C36.7 0 28.3 6.7 25 20C30 13.3 35.8 10.8 42.5 12.5C46.3 13.5 49 16.2 52 19.3C56.9 24.3 62.6 30 75 30C88.3 30 96.7 23.3 100 10C95 16.7 89.2 19.2 82.5 17.5C78.7 16.5 76 13.8 73 10.7C68.1 5.8 62.4 0 50 0ZM25 30C11.7 30 3.3 36.7 0 50C5 43.3 10.8 40.8 17.5 42.5C21.3 43.5 24 46.2 27 49.3C31.9 54.3 37.6 60 50 60C63.3 60 71.7 53.3 75 40C70 46.7 64.2 49.2 57.5 47.5C53.7 46.5 51 43.8 48 40.7C43.1 35.8 37.4 30 25 30Z" fill="#16BDCA"/>
</svg>
