<svg xmlns="http://www.w3.org/2000/svg" viewBox="0 0 80.6 91.5"><defs><style>.cls-1{fill:#fdcd9b;}.cls-2{fill:#f3b881;}.cls-3{fill:#352215;}.cls-4{fill:#2d2c2b;}.cls-5{fill:#f1a58d;}.cls-6{fill:#00acc2;}</style></defs><title>Asset 1</title><g id="Layer_2" data-name="Layer 2"><g id="Layer_1-2" data-name="Layer 1"><rect class="cls-1" x="32.09" y="68.43" width="16.42" height="16.71"/><path class="cls-1" d="M13.88,42.77a6.94,6.94,0,1,1-7-6.9A6.94,6.94,0,0,1,13.88,42.77Z"/><path class="cls-2" d="M11,42.79a4,4,0,1,1-4.05-4A4,4,0,0,1,11,42.79Z"/><path class="cls-1" d="M80.6,42.38a6.94,6.94,0,1,1-7-6.9A6.93,6.93,0,0,1,80.6,42.38Z"/><path class="cls-2" d="M77.69,42.4a4,4,0,1,1-4-4A4,4,0,0,1,77.69,42.4Z"/><path class="cls-1" d="M73.5,44.85A27,27,0,0,1,46.69,72l-12.77.08A27.06,27.06,0,0,1,6.78,45.24l-.07-11.6A27.06,27.06,0,0,1,33.53,6.5L46.3,6.43A27,27,0,0,1,73.44,33.24Z"/><path class="cls-2" d="M44,52.2c0,1.29-1.65,2.35-3.7,2.37s-3.71-1-3.72-2.32,1.65-2.35,3.7-2.36S44,50.91,44,52.2Z"/><path class="cls-3" d="M60.71,45.09c0,1.89-1.12,3.44-2.5,3.44s-2.5-1.55-2.5-3.44,1.13-3.44,2.5-3.44S60.71,43.19,60.71,45.09Z"/><path class="cls-3" d="M24.52,45.09c0,1.89-1.13,3.44-2.5,3.44s-2.5-1.55-2.5-3.44,1.13-3.44,2.5-3.44S24.52,43.19,24.52,45.09Z"/><path class="cls-4" d="M53.59,36.65c2.79-2.39,6.48-2,9.22.23.67.55,1.5-.5.83-1.05-3.18-2.62-7.61-3-10.86-.24-.66.56.15,1.63.81,1.06Z"/><path class="cls-4" d="M26.65,36.65c-2.8-2.39-6.49-2-9.23.23-.67.55-1.5-.5-.83-1.05,3.18-2.62,7.61-3,10.87-.24.65.56-.16,1.63-.81,1.06Z"/><path class="cls-5" d="M31.56,58.74c2.5,5.8,14.87,5.86,17.11-.18.35-.93-1.13-1.32-1.47-.4C45.4,63,34.82,62.46,32.88,58c-.39-.9-1.71-.12-1.32.77Z"/><path class="cls-6" d="M48.51,76.78c-2.77,4.57-13.65,4.57-16.42,0,0,0-26.09-.6-32.09,14.72H80.42C74.42,76.18,48.51,76.78,48.51,76.78Z"/><path class="cls-4" d="M6.9,35.87S18.29,26,22,21.67c0,0,20.9,3,32.23-4.34,0,0,12.06,15,19.2,18.16C73.45,35.49,80.6,0,40.11,0,0,0,6.9,35.87,6.9,35.87Z"/></g></g></svg>